<?xml version="1.0" encoding="UTF-8" standalone="no"?><!DOCTYPE svg PUBLIC "-//W3C//DTD SVG 1.1//EN" "http://www.w3.org/Graphics/SVG/1.1/DTD/svg11.dtd"><svg width="100%" height="100%" viewBox="0 0 144 144" version="1.1" xmlns="http://www.w3.org/2000/svg" xmlns:xlink="http://www.w3.org/1999/xlink" xml:space="preserve" xmlns:serif="http://www.serif.com/" style="fill-rule:evenodd;clip-rule:evenodd;stroke-linejoin:round;stroke-miterlimit:2;"><rect id="favicon" x="0" y="0" width="144" height="144" style="fill:none;"/><clipPath id="_clip1"><rect x="0" y="0" width="144" height="144"/></clipPath><g clip-path="url(#_clip1)"><g><g><path d="M144,22.314l-0,99.372c-0,12.316 -9.998,22.314 -22.314,22.314l-99.372,0c-12.316,0 -22.314,-9.998 -22.314,-22.314l-0,-99.372c-0,-12.316 9.998,-22.314 22.314,-22.314l99.372,-0c12.316,-0 22.314,9.998 22.314,22.314Z" style="fill:#319462;"/></g><g><path d="M90,27c0,-4.967 -4.033,-9 -9,-9l-18,0c-4.967,0 -9,4.033 -9,9l0,90c0,4.967 4.033,9 9,9l18,-0c4.967,-0 9,-4.033 9,-9l0,-90Z" style="fill:#fff;"/><rect x="54" y="45" width="36" height="9" style="fill:#f00;fill-opacity:0.63;"/></g></g></g></svg>