<?xml version="1.0" encoding="UTF-8" standalone="no"?><!DOCTYPE svg PUBLIC "-//W3C//DTD SVG 1.1//EN" "http://www.w3.org/Graphics/SVG/1.1/DTD/svg11.dtd"><svg width="100%" height="100%" viewBox="0 0 24 24" version="1.1" xmlns="http://www.w3.org/2000/svg" xmlns:xlink="http://www.w3.org/1999/xlink" xml:space="preserve" xmlns:serif="http://www.serif.com/" style="fill-rule:evenodd;clip-rule:evenodd;stroke-linejoin:round;stroke-miterlimit:2;"><path d="M12,1.25c5.933,0 10.75,4.817 10.75,10.75c0,5.933 -4.817,10.75 -10.75,10.75c-5.933,0 -10.75,-4.817 -10.75,-10.75c0,-5.933 4.817,-10.75 10.75,-10.75Zm0.567,17.251c0.277,-0.308 0.253,-0.782 -0.055,-1.059c-0.308,-0.277 -0.782,-0.253 -1.059,0.055l-0.01,0.011c-0.278,0.308 -0.253,0.782 0.055,1.059c0.308,0.278 0.782,0.253 1.059,-0.055l0.01,-0.011Zm-2.222,-10.898c0.36,-0.306 0.868,-0.478 1.405,-0.478c0.537,-0 1.045,0.172 1.405,0.478c0.345,0.292 0.595,0.738 0.595,1.397c0,0.484 -0.116,0.776 -0.265,0.998c-0.157,0.237 -0.364,0.422 -0.665,0.692l-0.072,0.065c-0.318,0.286 -0.711,0.652 -1.01,1.18c-0.307,0.541 -0.488,1.203 -0.488,2.065c-0,0.414 0.336,0.75 0.75,0.75c0.414,-0 0.75,-0.336 0.75,-0.75c-0,-0.638 0.131,-1.039 0.293,-1.326c0.17,-0.3 0.401,-0.528 0.709,-0.804c0.028,-0.025 0.057,-0.051 0.087,-0.078c0.275,-0.246 0.625,-0.558 0.894,-0.962c0.321,-0.48 0.517,-1.064 0.517,-1.83c0,-1.091 -0.437,-1.958 -1.124,-2.541c-0.671,-0.569 -1.538,-0.834 -2.376,-0.834c-0.838,0 -1.705,0.265 -2.376,0.834c-0.687,0.583 -1.124,1.45 -1.124,2.541c0,0.414 0.336,0.75 0.75,0.75c0.414,0 0.75,-0.336 0.75,-0.75c0,-0.659 0.25,-1.105 0.595,-1.397Z"/></svg>